<?xml version="1.0" encoding="UTF-8"?><svg xmlns="http://www.w3.org/2000/svg" xmlns:xlink="http://www.w3.org/1999/xlink" version="1.1" x="0px" y="0px" viewBox="0 0 32 32" xml:space="preserve"><g id="Line" fill="#e6e6e6"><path d="M30 2v28H2V2h28m1-1H1v30h30V1z"/><path d="M30 2v28H2V2h28m1-1H1v30h30V1z"/><path id="Cat_5_" d="M19.246 24.945h-4.768s.007-1.415 0-2.385c-3.264.703-4.175-1.789-4.175-1.789-.596-1.193-1.193-1.789-1.193-1.789-1.193-.708 0-.596 0-.596 1.193 0 1.789 1.193 1.789 1.193 1.047 1.777 2.909 1.491 3.578 1.193 0-.596.261-1.498.596-1.789-2.605-.293-4.773-1.789-4.773-4.771s.599-3.578 1.195-4.175c-.12-.294-.62-1.381.018-2.982 0 0 1.172 0 2.365 1.789.591-.591 2.385-.596 2.982-.596.595 0 2.39.005 2.981.596 1.193-1.789 2.368-1.789 2.368-1.789.638 1.601.139 2.688.018 2.982.596.596 1.193 1.193 1.193 4.175s-2.165 4.477-4.771 4.771c.336.291.596 1.317.596 1.789l.001 4.173z"/></g><metadata><rdf:RDF xmlns:rdf="http://www.w3.org/1999/02/22-rdf-syntax-ns#" xmlns:rdfs="http://www.w3.org/2000/01/rdf-schema#" xmlns:dc="http://purl.org/dc/elements/1.1/"><rdf:Description about="https://iconscout.com/legal#licenses" dc:title="github,social,media,logo" dc:description="github,social,media,logo" dc:publisher="Iconscout" dc:date="2017-09-15" dc:format="image/svg+xml" dc:language="en"><dc:creator><rdf:Bag><rdf:li>Epicflaticon by Alfredo</rdf:li></rdf:Bag></dc:creator></rdf:Description></rdf:RDF></metadata></svg>