<?xml version="1.0" encoding="UTF-8"?><svg xmlns="http://www.w3.org/2000/svg" xmlns:xlink="http://www.w3.org/1999/xlink" version="1.1" id="Layer_1" x="0px" y="0px" viewBox="0 0 32 32" xml:space="preserve"><g fill="#e6e6e6"><path d="M30 2v28H2V2h28m1-1H1v30h30V1z"/><path d="M30 2v28H2V2h28m1-1H1v30h30V1z"/></g><path fill="#e6e6e6" d="M22.561 7.252H9.439a2.153 2.153 0 0 0-2.187 2.187V22.56c0 1.234.952 2.187 2.187 2.187H22.56a2.154 2.154 0 0 0 2.187-2.187V9.439a2.152 2.152 0 0 0-2.186-2.187zm-6.548 5.311c1.94 0 3.512 1.524 3.512 3.404 0 1.879-1.572 3.404-3.512 3.404-1.939 0-3.511-1.525-3.511-3.404 0-1.88 1.573-3.404 3.511-3.404zm6.548 9.451c0 .383-.164.547-.547.547H9.986c-.382 0-.547-.163-.547-.547V14.36l1.363.296a5.105 5.105 0 0 0-.226 1.5c0 2.907 2.436 5.267 5.436 5.267 3.003 0 5.436-2.359 5.436-5.267 0-.522-.079-1.025-.225-1.5l1.336-.296v7.654h.002zm0-9.842a.547.547 0 0 1-.547.547h-2.187a.547.547 0 0 1-.547-.547V9.986c0-.302.245-.547.547-.547h2.187c.302 0 .547.245.547.547v2.186z"/><metadata><rdf:RDF xmlns:rdf="http://www.w3.org/1999/02/22-rdf-syntax-ns#" xmlns:rdfs="http://www.w3.org/2000/01/rdf-schema#" xmlns:dc="http://purl.org/dc/elements/1.1/"><rdf:Description about="https://iconscout.com/legal#licenses" dc:title="instagram,social,media,logo" dc:description="instagram,social,media,logo" dc:publisher="Iconscout" dc:date="2017-09-15" dc:format="image/svg+xml" dc:language="en"><dc:creator><rdf:Bag><rdf:li>Epicflaticon by Alfredo</rdf:li></rdf:Bag></dc:creator></rdf:Description></rdf:RDF></metadata></svg>